<svg xmlns="http://www.w3.org/2000/svg" viewBox="0 0 512 512">
  <!-- Background -->
  <rect width="512" height="512" fill="#1e293b"/>
  <!-- Headphones icon centered, roughly 60% of viewBox (approx 307px span) -->
  <!-- Headband arc: top of headphones -->
  <path d="M 256 102
    C 155 102 73 184 73 285
    L 73 310
    L 73 320
    A 40 40 0 0 1 153 320
    L 153 285
    C 153 228 199 182 256 182
    C 313 182 359 228 359 285
    L 359 320
    A 40 40 0 0 1 439 320
    L 439 310
    L 439 285
    C 439 184 357 102 256 102 Z"
    fill="#94a3b8"/>
  <!-- Left ear cup -->
  <rect x="73" y="280" width="80" height="100" rx="20" ry="20" fill="#94a3b8"/>
  <!-- Right ear cup -->
  <rect x="359" y="280" width="80" height="100" rx="20" ry="20" fill="#94a3b8"/>
  <!-- Music note accent on left cup -->
  <text x="113" y="345" font-size="40" text-anchor="middle" fill="#1e293b" font-family="sans-serif"></text>
</svg>
